<svg xmlns="http://www.w3.org/2000/svg" width="640" height="360" viewBox="0 0 640 360">
  <style>text{font-family:Arial, Helvetica, sans-serif;font-size:12px;fill:#222}</style>
  <rect width="100%" height="100%" fill="#fff"/>
  <line x1="60" y1="300" x2="580" y2="300" stroke="#333"/>
  <line x1="60" y1="300" x2="60" y2="40" stroke="#333"/>
  <text x="300" y="330">Corrected mass flow (placeholder)</text>
  <text x="10" y="200" transform="rotate(-90 10,200)">Pressure ratio</text>
  <!-- efficiency islands -->
  <path d="M80 260 C140 210 220 190 300 180 C380 170 460 175 540 200" stroke="#a00" fill="none"/>
  <path d="M100 240 C170 200 250 185 320 177 C390 170 470 175 540 195" stroke="#d9534f" fill="none"/>
  <path d="M120 220 C200 190 270 180 340 175 C410 170 470 174 540 190" stroke="#f0ad4e" fill="none"/>
  <text x="360" y="200">Efficiency islands (placeholder)</text>
  <text x="80" y="260">Surge</text>
</svg>
